<?xml version="1.0" encoding="UTF-8"?>
<!DOCTYPE svg PUBLIC "-//W3C//DTD SVG 1.1//EN" "http://www.w3.org/Graphics/SVG/1.1/DTD/svg11.dtd">
<!-- Creator: CorelDRAW -->
<svg xmlns="http://www.w3.org/2000/svg" xml:space="preserve" width="210mm" height="297mm" style="shape-rendering:geometricPrecision; text-rendering:geometricPrecision; image-rendering:optimizeQuality; fill-rule:evenodd; clip-rule:evenodd"
viewBox="0 0 210 297"
 xmlns:xlink="http://www.w3.org/1999/xlink">
 <defs>
  <style type="text/css">
   <![CDATA[
    .fil0 {fill:red}
    .fil2 {fill:black;fill-rule:nonzero}
    .fil1 {fill:red;fill-rule:nonzero}
   ]]>
  </style>
 </defs>
 <g id="Layer_x0020_1">
  <metadata id="CorelCorpID_0Corel-Layer"/>
  <g id="_317911664">
   <path id="_317909480" class="fil0" d="M109.731 154.584c-1.091,0.3352 -2.2586,0.5171 -3.4726,0.5171 -4.9558,0 -9.141,-3.0243 -10.4842,-7.1706 1.4067,3.7966 5.2999,6.526 9.8828,6.526 1.3463,0 2.6328,-0.236 3.8144,-0.6651l0.2211 0.675 0.0385 0.1176z"/>
   <path id="_317912480" class="fil1" d="M106.242 136.108c0.5367,0 1.0517,0.0505 1.5492,0.156 0.493,0.1009 0.9295,0.2707 1.3091,0.5093 0.3797,0.2386 0.6808,0.5506 0.9034,0.936 0.2181,0.3853 0.3316,0.8579 0.3316,1.4223 0,1.1752 -0.8928,1.6524 -1.8171,1.9789 -0.4348,0.1536 -0.8829,0.2361 -0.1311,0.1637 2.0661,-0.1992 4.1526,1.9174 3.9618,4.1753 0,0.6928 -0.1361,1.2755 -0.4145,1.7572 -0.2753,0.4765 -0.5597,0.8681 -1.018,1.1746 -1.3327,0.8912 -3.3125,0.8717 -4.8271,0.8717l-0.1595 0.0003 0.2735 -0.7251c0.8948,0 2.7878,-0.0123 3.5312,-0.7 0.5299,-0.4902 0.85,-1.1923 0.907,-2.1218 0.249,-4.0586 -3.2039,-3.835 -6.1495,-3.835l0 5.1931c0,0.293 0.0135,0.5372 0.0437,0.7295 0.0143,0.0912 0.0386,0.1732 0.0723,0.246l-0.4701 1.2086c-1.2666,-0.0198 -2.6806,-0.0922 -3.2507,-0.3348 0.4885,-0.1942 1.7535,-0.2542 1.8287,-0.6426 0.1179,-0.1239 0.1964,-0.2936 0.2357,-0.5001 0.0393,-0.2111 0.0567,-0.4864 0.0567,-0.8305l0 -9.0432c0,-0.2156 -0.0174,-0.3946 -0.0523,-0.5368 -0.035,-0.1468 -0.1091,-0.2661 -0.2226,-0.3579 -0.1335,-0.3591 -1.4707,-0.6119 -1.7468,-0.6313 1.2346,-0.3305 3.8974,-0.2634 5.2554,-0.2634zm-1.75 5.0798l1.0605 0c1.076,0 3.0547,-0.3908 3.0547,-1.8406 0,-0.3028 -0.0392,-0.6055 -0.1221,-0.9084 -0.0786,-0.2982 -0.2226,-0.5689 -0.4321,-0.8121 -0.2095,-0.2432 -0.5018,-0.4405 -0.8772,-0.5918 -0.3753,-0.1515 -0.8552,-0.2295 -1.4444,-0.2295 -0.3055,0 -0.5455,0.023 -0.7157,0.0643 -0.1702,0.0366 -0.2924,0.0963 -0.3709,0.1743 -0.0786,0.0734 -0.1228,0.1701 -0.1353,0.2799 -0.013,0.1143 -0.0175,0.2393 -0.0175,0.3854l0 3.4785z"/>
   <path id="_317909672" class="fil2" d="M104.913 150.708c-0.1517,0.4074 -1.2393,3.1717 -1.2393,3.3577l-0.9089 -0.1935c0.1397,-0.2754 0.2316,-0.5913 0.4114,-1.0536l3.5391 -9.0983c0.2287,-0.5878 0.5925,-1.506 0.9925,-1.4918 0.1755,0.0062 0.358,0.1919 0.5391,0.6638 0.3364,0.8767 0.8935,2.5413 1.4604,4.2836 -0.0682,0.0806 -0.1412,0.1567 -0.2185,0.2283 -0.2756,0.255 -0.7096,0.4171 -1.1919,0.5202l-1.0448 -3.3186 -0.0393 0 -2.0074 5.3223 -0.2924 0.7799zm5.4595 -1.4691c0.4933,1.5418 0.9254,2.9145 1.1368,3.5808 2.7697,-1.726 4.5916,-4.6528 4.5916,-7.9734 0,-5.3072 -4.6531,-9.6096 -10.3928,-9.6096 -0.5528,0 -1.0954,0.0403 -1.6248,0.1172 -0.1333,0.0172 -0.2659,0.0368 -0.3976,0.0588 0.9206,-0.2463 1.892,-0.3783 2.8961,-0.3783 5.8612,0 10.6127,4.492 10.6127,10.0331 0,3.6908 -2.1086,6.9154 -5.2486,8.6578l0.0003 0.0009 -0.0062 0.0023c-0.4971,0.2754 -1.0198,0.5139 -1.5642,0.711l-0.0385 -0.1176 -0.2487 -0.7596 -0.3582 -1.0935 0 0 -0.5582 -1.7608 -0.2444 -0.7799 -0.0934 -0.2965c0.5362,-0.0743 1.0606,-0.1954 1.5381,-0.3927z"/>
  </g>
 </g>
</svg>
