<?xml version="1.0" encoding="UTF-8"?>
<!DOCTYPE svg PUBLIC "-//W3C//DTD SVG 1.1//EN" "http://www.w3.org/Graphics/SVG/1.1/DTD/svg11.dtd">
<!-- Creator: CorelDRAW -->
<svg xmlns="http://www.w3.org/2000/svg" xml:space="preserve" width="210mm" height="297mm" style="shape-rendering:geometricPrecision; text-rendering:geometricPrecision; image-rendering:optimizeQuality; fill-rule:evenodd; clip-rule:evenodd"
viewBox="0 0 210 297"
 xmlns:xlink="http://www.w3.org/1999/xlink">
 <defs>
  <style type="text/css">
   <![CDATA[
    .fil0 {fill:white}
    .fil1 {fill:white;fill-rule:nonzero}
   ]]>
  </style>
 </defs>
 <g id="Layer_x0020_1">
  <metadata id="CorelCorpID_0Corel-Layer"/>
  <g id="_317911664">
   <path id="_317909480" class="fil0" d="M109.718 154.584c-1.0868,0.3352 -2.2497,0.5171 -3.459,0.5171 -4.9361,0 -9.1047,-3.0243 -10.4426,-7.1706 1.4011,3.7966 5.2789,6.526 9.8437,6.526 1.341,0 2.6224,-0.236 3.7993,-0.6651l0.2202 0.675 0.0384 0.1176z"/>
   <path id="_317912480" class="fil1" d="M106.243 136.108c0.5346,0 1.0475,0.0505 1.543,0.156 0.4911,0.1009 0.9259,0.2707 1.304,0.5093 0.3781,0.2386 0.6781,0.5506 0.8998,0.936 0.2172,0.3853 0.3303,0.8579 0.3303,1.4223 0,1.1752 -0.8892,1.6524 -1.8099,1.9789 -0.4331,0.1536 -0.8795,0.2361 -0.1306,0.1637 2.0579,-0.1992 4.1362,1.9174 3.9461,4.1753 0,0.6928 -0.1356,1.2755 -0.4128,1.7572 -0.2743,0.4765 -0.5576,0.8681 -1.014,1.1746 -1.3274,0.8912 -3.2994,0.8717 -4.8081,0.8717l-0.1588 0.0003 0.2724 -0.7251c0.8912,0 2.7768,-0.0123 3.5172,-0.7 0.5278,-0.4902 0.8467,-1.1923 0.9035,-2.1218 0.2479,-4.0586 -3.1912,-3.835 -6.1252,-3.835l0 5.1931c0,0.293 0.0134,0.5372 0.0435,0.7295 0.0143,0.0912 0.0385,0.1732 0.072,0.246l-0.4683 1.2086c-1.2615,-0.0198 -2.6699,-0.0922 -3.2377,-0.3348 0.4865,-0.1942 1.7465,-0.2542 1.8214,-0.6426 0.1174,-0.1239 0.1956,-0.2936 0.2348,-0.5001 0.0391,-0.2111 0.0565,-0.4864 0.0565,-0.8305l0 -9.0432c0,-0.2156 -0.0174,-0.3946 -0.0521,-0.5368 -0.0349,-0.1468 -0.1088,-0.2661 -0.2218,-0.3579 -0.133,-0.3591 -1.4649,-0.6119 -1.7399,-0.6313 1.2298,-0.3305 3.882,-0.2634 5.2347,-0.2634zm-1.7431 5.0798l1.0563 0c1.0717,0 3.0427,-0.3908 3.0427,-1.8406 0,-0.3028 -0.0392,-0.6055 -0.1218,-0.9084 -0.0782,-0.2982 -0.2216,-0.5689 -0.4303,-0.8121 -0.2086,-0.2432 -0.4999,-0.4405 -0.8737,-0.5918 -0.3738,-0.1515 -0.8519,-0.2295 -1.4387,-0.2295 -0.3043,0 -0.5434,0.023 -0.7129,0.0643 -0.1695,0.0366 -0.2912,0.0963 -0.3695,0.1743 -0.0782,0.0734 -0.1222,0.1701 -0.1347,0.2799 -0.013,0.1143 -0.0174,0.2393 -0.0174,0.3854l0 3.4785z"/>
   <path id="_317909672" class="fil1" d="M104.919 150.708c-0.1511,0.4074 -1.2344,3.1717 -1.2344,3.3577l-0.9053 -0.1935c0.1391,-0.2754 0.2307,-0.5913 0.4098,-1.0536l3.5251 -9.0983c0.2278,-0.5878 0.5901,-1.506 0.9885,-1.4918 0.1748,0.0062 0.3566,0.1919 0.537,0.6638 0.3351,0.8767 0.89,2.5413 1.4547,4.2836 -0.068,0.0806 -0.1406,0.1567 -0.2177,0.2283 -0.2745,0.255 -0.7068,0.4171 -1.1872,0.5202l-1.0407 -3.3186 -0.0391 0 -1.9994 5.3223 -0.2913 0.7799zm5.4379 -1.4691c0.4914,1.5418 0.9218,2.9145 1.1323,3.5808 2.7588,-1.726 4.5735,-4.6528 4.5735,-7.9734 0,-5.3072 -4.6347,-9.6096 -10.3517,-9.6096 -0.5506,0 -1.0911,0.0403 -1.6184,0.1172 -0.1328,0.0172 -0.2649,0.0368 -0.396,0.0588 0.917,-0.2463 1.8845,-0.3783 2.8847,-0.3783 5.8379,0 10.5707,4.492 10.5707,10.0331 0,3.6908 -2.1003,6.9154 -5.2279,8.6578l0.0003 0.0009 -0.0062 0.0023c-0.4951,0.2754 -1.0158,0.5139 -1.558,0.711l-0.0383 -0.1176 -0.2478 -0.7596 -0.3567 -1.0935 0 0 -0.5561 -1.7608 -0.2434 -0.7799 -0.093 -0.2965c0.5341,-0.0743 1.0564,-0.1954 1.532,-0.3927z"/>
  </g>
 </g>
</svg>
