<?xml version="1.0" encoding="UTF-8"?>
<!DOCTYPE svg PUBLIC "-//W3C//DTD SVG 1.1//EN" "http://www.w3.org/Graphics/SVG/1.1/DTD/svg11.dtd">
<!-- Creator: CorelDRAW -->
<svg xmlns="http://www.w3.org/2000/svg" xml:space="preserve" width="210mm" height="297mm" style="shape-rendering:geometricPrecision; text-rendering:geometricPrecision; image-rendering:optimizeQuality; fill-rule:evenodd; clip-rule:evenodd"
viewBox="0 0 210 297"
 xmlns:xlink="http://www.w3.org/1999/xlink">
 <defs>
  <style type="text/css">
   <![CDATA[
    .fil0 {fill:red}
    .fil2 {fill:black;fill-rule:nonzero}
    .fil1 {fill:red;fill-rule:nonzero}
   ]]>
  </style>
 </defs>
 <g id="Layer_x0020_1">
  <metadata id="CorelCorpID_0Corel-Layer"/>
  <g id="_317911664">
   <path id="_317909480" class="fil0" d="M113.407 171.172c-2.208,0.6804 -4.5708,1.0495 -7.0278,1.0495 -10.029,0 -18.4986,-6.1379 -21.2168,-14.553 2.8467,7.7053 10.7254,13.2448 19.9999,13.2448 2.7246,0 5.3281,-0.479 7.7192,-1.3498l0.4474 1.3699 0.0781 0.2386z"/>
   <path id="_317912480" class="fil1" d="M106.346 133.674c1.0861,0 2.1282,0.1025 3.135,0.3165 0.9979,0.2049 1.8811,0.5494 2.6494,1.0336 0.7683,0.4843 1.3777,1.1175 1.8281,1.8997 0.4414,0.7821 0.6712,1.7413 0.6712,2.8866 0,2.3852 -1.8068,3.3536 -3.6774,4.0164 -0.8799,0.3116 -1.7868,0.4791 -0.2653,0.3321 4.1813,-0.4042 8.4038,3.8914 8.0176,8.4739 0,1.4062 -0.2756,2.5887 -0.8389,3.5664 -0.5571,0.9671 -1.1327,1.7618 -2.0601,2.3839 -2.697,1.8087 -6.7036,1.7692 -9.7687,1.7692l-0.3227 0.0005 0.5534 -1.4717c1.8107,0 5.6417,-0.0249 7.1461,-1.4206 1.0724,-0.9949 1.7201,-2.4198 1.8356,-4.3062 0.5038,-8.2372 -6.4838,-7.7833 -12.4448,-7.7833l0 10.5396c0,0.5946 0.0273,1.0903 0.0885,1.4806 0.0289,0.185 0.078,0.3514 0.1461,0.4992l-0.9513 2.4529c-2.5632,-0.0403 -5.4247,-0.1872 -6.5784,-0.6794 0.9886,-0.3942 3.5486,-0.5161 3.7008,-1.3043 0.2385,-0.2514 0.3974,-0.5959 0.4769,-1.015 0.0795,-0.4283 0.1148,-0.9871 0.1148,-1.6855l0 -18.3535c0,-0.4377 -0.0353,-0.8008 -0.1058,-1.0895 -0.0708,-0.298 -0.2209,-0.5401 -0.4506,-0.7263 -0.2702,-0.7288 -2.9763,-1.2419 -3.535,-1.2813 2.4985,-0.6708 7.8872,-0.5345 10.6355,-0.5345zm-3.5415 10.3096l2.1461 0c2.1775,0 6.1819,-0.7931 6.1819,-3.7355 0,-0.6146 -0.0795,-1.2291 -0.2473,-1.8437 -0.1589,-0.6052 -0.4504,-1.1547 -0.8743,-1.6482 -0.4239,-0.4935 -1.0156,-0.894 -1.7751,-1.2011 -0.7595,-0.3075 -1.7309,-0.4658 -2.9231,-0.4658 -0.6182,0 -1.104,0.0467 -1.4484,0.1305 -0.3444,0.0744 -0.5917,0.1955 -0.7507,0.3538 -0.1589,0.149 -0.2484,0.3452 -0.2738,0.568 -0.0263,0.2321 -0.0353,0.4857 -0.0353,0.7822l0 7.0598z"/>
   <path id="_317909672" class="fil2" d="M103.658 163.307c-0.3071,0.8268 -2.5081,6.4371 -2.5081,6.8146l-1.8394 -0.3927c0.2828,-0.5589 0.4688,-1.2001 0.8326,-2.1383l7.1622 -18.4654c0.4628,-1.193 1.199,-3.0564 2.0084,-3.0277 0.3552,0.0127 0.7246,0.3895 1.091,1.3473 0.681,1.7792 1.8083,5.1576 2.9555,8.6936 -0.1381,0.1637 -0.2856,0.3181 -0.4422,0.4633 -0.5578,0.5176 -1.4359,0.8466 -2.412,1.0558l-2.1145 -6.7352 -0.0794 0 -4.0624 10.8019 -0.5917 1.5828zm11.0483 -2.9815c0.9984,3.129 1.8728,5.915 2.3006,7.2674 5.6051,-3.5031 9.2922,-9.4431 9.2922,-16.1825 0,-10.7711 -9.4166,-19.5029 -21.0321,-19.5029 -1.1187,0 -2.2167,0.0818 -3.2881,0.2378 -0.2698,0.0348 -0.5382,0.0746 -0.8046,0.1193 1.863,-0.4999 3.8289,-0.7677 5.8609,-0.7677 11.8612,0 21.477,9.1166 21.477,20.3624 0,7.4907 -4.2672,14.0353 -10.6218,17.5714l0.0008 0.0018 -0.0127 0.0047c-1.0059,0.559 -2.0637,1.0431 -3.1654,1.4431l-0.0779 -0.2387 -0.5034 -1.5417 -0.7249 -2.2193 0 0 -1.1296 -3.5736 -0.4946 -1.5828 -0.1889 -0.6018c1.085,-0.1507 2.1462,-0.3966 3.1125,-0.7969z"/>
  </g>
 </g>
</svg>
